<svg xmlns="http://www.w3.org/2000/svg" xmlns:xlink="http://www.w3.org/1999/xlink" width="318.352" height="31.133" viewBox="0 0 318.352 31.133">
  <defs>
    <clipPath id="clip-path">
      <rect id="Rectangle_4817" data-name="Rectangle 4817" width="318.352" height="31.133" fill="none"/>
    </clipPath>
  </defs>
  <g id="Group_40677" data-name="Group 40677" transform="translate(0 0)">
    <g id="Group_40676" data-name="Group 40676" transform="translate(0 0)" clip-path="url(#clip-path)">
      <path id="Path_8858" data-name="Path 8858" d="M161.888,14.111c-5.64,0-9.893,3.63-9.893,8.443,0,4.769,4.266,8.365,9.924,8.365a18.713,18.713,0,0,0,3.753-.393l.641-.14v-2l-1,.23a16.36,16.36,0,0,1-3.4.366c-4.595,0-7.93-2.7-7.93-6.428,0-3.709,3.4-6.506,7.9-6.506a13.819,13.819,0,0,1,3.4.424l1.026.277V14.711l-.622-.151a17.143,17.143,0,0,0-3.8-.449" transform="translate(-78.51 -7.289)" fill="#fff"/>
      <path id="Path_8859" data-name="Path 8859" d="M207.73,19.806c0-3.1-2.69-5.268-6.542-5.268H194.22V30.8h1.994V25.073h5.147l4.15,5.732h2.437l-4.379-6.044c2.536-.718,4.161-2.6,4.161-4.955m-11.516-3.33h4.974c2.711,0,4.533,1.338,4.533,3.33s-1.822,3.33-4.533,3.33h-4.974Z" transform="translate(-100.321 -7.509)" fill="#fff"/>
      <path id="Path_8860" data-name="Path 8860" d="M235.734,23.5h8.043V21.559h-8.043V16.45h9.475V14.511H233.74V30.83h11.9V28.892h-9.9Z" transform="translate(-120.734 -7.495)" fill="#fff"/>
      <path id="Path_8861" data-name="Path 8861" d="M278.576,14.565h-4.111l-7.127,16.254h2.174L275.774,16.5h1.493l6.262,14.316H285.7Z" transform="translate(-138.089 -7.523)" fill="#fff"/>
      <path id="Path_8862" data-name="Path 8862" d="M307.629,16.6h5.9V30.874h1.994V16.6h5.9V14.672H307.629Z" transform="translate(-158.9 -7.578)" fill="#fff"/>
      <rect id="Rectangle_4816" data-name="Rectangle 4816" width="1.994" height="16.215" transform="translate(168.379 7.08)" fill="#fff"/>
      <path id="Path_8863" data-name="Path 8863" d="M373.758,28.883H372.7l-6.261-14.238h-2.16l7.114,16.176h3.69l6.86-16.176h-2.15Z" transform="translate(-188.159 -7.565)" fill="#fff"/>
      <path id="Path_8864" data-name="Path 8864" d="M413.672,23.5h8.043V21.559h-8.043V16.45h9.475V14.511H411.678V30.83h11.9V28.892h-9.9Z" transform="translate(-212.644 -7.495)" fill="#fff"/>
      <path id="Path_8865" data-name="Path 8865" d="M480.613,22.147a4.131,4.131,0,0,0,1.748-3.321c0-2.642-2.407-4.635-5.6-4.635h-7.547V30.845h7.913c3.521,0,6.176-2.059,6.176-4.79a4.394,4.394,0,0,0-2.692-3.908m-3.484,6.76H471.21V23.332h5.919c2.367,0,4.152,1.17,4.152,2.722,0,1.6-1.824,2.852-4.152,2.852m-.366-7.513H471.21V16.129h5.554c2.037,0,3.573,1.159,3.573,2.7,0,1.44-1.569,2.568-3.573,2.568" transform="translate(-242.365 -7.33)" fill="#fff"/>
      <path id="Path_8866" data-name="Path 8866" d="M512.278,14.645h-1.994V30.821h11.393V28.883h-9.4Z" transform="translate(-263.577 -7.564)" fill="#fff"/>
      <path id="Path_8867" data-name="Path 8867" d="M546.257,23.5H554.3V21.559h-8.044V16.45h9.476V14.511H544.263V30.83h11.9V28.892h-9.9Z" transform="translate(-281.129 -7.495)" fill="#fff"/>
      <path id="Path_8868" data-name="Path 8868" d="M594.94,28.449,583.835,14.684H581.2l.068,16.176h1.994L583.2,17.024l11.13,13.8h2.6V14.645H594.94Z" transform="translate(-300.206 -7.565)" fill="#fff"/>
      <path id="Path_8869" data-name="Path 8869" d="M631.82,14.725h-5.826V30.889h5.826c5.908,0,9.878-3.243,9.878-8.07,0-4.766-4.062-8.094-9.878-8.094m0,14.226h-3.832V16.663h3.832c4.7,0,7.854,2.475,7.854,6.156,0,3.724-3.083,6.131-7.854,6.131" transform="translate(-323.345 -7.606)" fill="#fff"/>
      <path id="Path_8870" data-name="Path 8870" d="M56.974,16.9H44.808V0H56.974a8.4,8.4,0,0,1,8.392,8.39v.118A8.4,8.4,0,0,1,56.974,16.9m-9.5-2.667h9.5A5.73,5.73,0,0,0,62.7,8.509V8.391a5.729,5.729,0,0,0-5.724-5.723h-9.5Z" transform="translate(-23.145 0)" fill="#fff"/>
      <path id="Path_8871" data-name="Path 8871" d="M56.974,46.338H44.808v-16.9H56.974a8.4,8.4,0,0,1,8.392,8.391v.117a8.4,8.4,0,0,1-8.392,8.392m-9.5-2.668h9.5A5.73,5.73,0,0,0,62.7,37.947v-.117a5.73,5.73,0,0,0-5.724-5.724h-9.5Z" transform="translate(-23.145 -15.205)" fill="#fff"/>
      <path id="Path_8872" data-name="Path 8872" d="M116.579,28.132l-6.4,4.219V24.24Z" transform="translate(-56.91 -12.521)" fill="#fff"/>
      <path id="Path_8873" data-name="Path 8873" d="M66.947,31.133h-4.21V28.465h4.21a15.781,15.781,0,0,0,8.935-2.759L90.734,15.567,75.883,5.427a15.781,15.781,0,0,0-8.935-2.76h-4.21V0h4.21a18.439,18.439,0,0,1,10.44,3.224L95.465,15.567,77.387,27.909a18.443,18.443,0,0,1-10.44,3.224" transform="translate(-32.406 0)" fill="#fff"/>
      <path id="Path_8874" data-name="Path 8874" d="M18.8,31.133h-3.23A15.566,15.566,0,1,1,15.566,0H18.8V2.668h-3.23a12.9,12.9,0,0,0,0,25.8H18.8Z" transform="translate(0 0)" fill="#fff"/>
    </g>
  </g>
</svg>
