<svg xmlns="http://www.w3.org/2000/svg" width="63.06" height="31.133" viewBox="0 0 63.06 31.133">
  <g id="Group_40780" data-name="Group 40780" transform="translate(0 0)">
    <path id="Path_8870" data-name="Path 8870" d="M56.974,16.9H44.808V0H56.974a8.4,8.4,0,0,1,8.392,8.39v.118A8.4,8.4,0,0,1,56.974,16.9m-9.5-2.667h9.5A5.73,5.73,0,0,0,62.7,8.509V8.391a5.729,5.729,0,0,0-5.724-5.723h-9.5Z" transform="translate(-23.145 0)"/>
    <path id="Path_8871" data-name="Path 8871" d="M56.974,46.338H44.808v-16.9H56.974a8.4,8.4,0,0,1,8.392,8.391v.117a8.4,8.4,0,0,1-8.392,8.392m-9.5-2.668h9.5A5.73,5.73,0,0,0,62.7,37.947v-.117a5.73,5.73,0,0,0-5.724-5.724h-9.5Z" transform="translate(-23.145 -15.205)"/>
    <path id="Path_8872" data-name="Path 8872" d="M116.579,28.132l-6.4,4.219V24.24Z" transform="translate(-56.91 -12.521)"/>
    <path id="Path_8873" data-name="Path 8873" d="M66.947,31.133h-4.21V28.465h4.21a15.781,15.781,0,0,0,8.935-2.759L90.734,15.567,75.883,5.427a15.781,15.781,0,0,0-8.935-2.76h-4.21V0h4.21a18.439,18.439,0,0,1,10.44,3.224L95.465,15.567,77.387,27.909a18.443,18.443,0,0,1-10.44,3.224" transform="translate(-32.406 0)"/>
    <path id="Path_8874" data-name="Path 8874" d="M18.8,31.133h-3.23A15.566,15.566,0,1,1,15.566,0H18.8V2.668h-3.23a12.9,12.9,0,0,0,0,25.8H18.8Z" transform="translate(0 0)"/>
  </g>
</svg>
