<svg xmlns="http://www.w3.org/2000/svg" width="34.308" height="34.308" viewBox="0 0 34.308 34.308">
  <path id="Path_29" data-name="Path 29" d="M37.387,14.28a17.141,17.141,0,0,0-30.465,0,.662.662,0,0,0-.046.089,17.091,17.091,0,0,0,0,15.569.664.664,0,0,0,.046.089,17.141,17.141,0,0,0,30.465,0,.664.664,0,0,0,.046-.089,17.091,17.091,0,0,0,0-15.569A.662.662,0,0,0,37.387,14.28ZM18.356,6.837a16.124,16.124,0,0,0-3.527,7.083H8.7A15.837,15.837,0,0,1,18.356,6.837ZM7.944,15.292h6.568a33.782,33.782,0,0,0-.662,6.175H6.39A15.671,15.671,0,0,1,7.944,15.292ZM6.39,22.84h7.46a33.782,33.782,0,0,0,.662,6.175H7.944A15.671,15.671,0,0,1,6.39,22.84ZM8.7,30.388h6.132a16.124,16.124,0,0,0,3.527,7.083A15.837,15.837,0,0,1,8.7,30.388Zm12.771,7.467c-2.167-.51-4.076-3.4-5.2-7.467h5.2Zm0-8.839H15.931a32.042,32.042,0,0,1-.709-6.175h6.246Zm0-7.548H15.222a32.042,32.042,0,0,1,.709-6.175h5.537Zm0-7.548h-5.2c1.122-4.066,3.031-6.957,5.2-7.467Zm14.143,0H29.479a16.122,16.122,0,0,0-3.527-7.083A15.837,15.837,0,0,1,35.611,13.92ZM22.84,6.453c2.167.51,4.076,3.4,5.2,7.467h-5.2Zm0,8.839h5.537a32.04,32.04,0,0,1,.709,6.175H22.84Zm0,7.548h6.246a32.04,32.04,0,0,1-.709,6.175H22.84Zm0,15.014V30.388h5.2C26.916,34.454,25.008,37.345,22.84,37.855Zm3.112-.384a16.122,16.122,0,0,0,3.527-7.083h6.132A15.837,15.837,0,0,1,25.952,37.471Zm10.412-8.455H29.8a33.782,33.782,0,0,0,.662-6.175h7.46A15.671,15.671,0,0,1,36.364,29.016Zm-5.905-7.548a33.782,33.782,0,0,0-.662-6.175h6.567a15.671,15.671,0,0,1,1.554,6.175Z" transform="translate(-5 -5)"/>
</svg>
