<svg xmlns="http://www.w3.org/2000/svg" xmlns:xlink="http://www.w3.org/1999/xlink" width="52" height="32.591" viewBox="0 0 52 32.591">
  <defs>
    <clipPath id="clip-path">
      <rect id="Rectangle_4954" data-name="Rectangle 4954" width="52" height="32.591" fill="#222"/>
    </clipPath>
  </defs>
  <g id="Group_40792" data-name="Group 40792" transform="translate(-1441.801 -11171.523)">
    <g id="Group_40785" data-name="Group 40785" transform="translate(1441.801 11171.523)">
      <g id="Group_40784" data-name="Group 40784" clip-path="url(#clip-path)">
        <path id="Path_17608" data-name="Path 17608" d="M23.86,3.389a8.033,8.033,0,0,1,1.473,4.854,7.028,7.028,0,0,1-1.485,4.682,7.8,7.8,0,0,1-2.454,1.806,7.227,7.227,0,0,1,3.715,2.805,8.361,8.361,0,0,1,1.251,4.658,9.2,9.2,0,0,1-1.433,5.067,8.807,8.807,0,0,1-2.276,2.5,8.908,8.908,0,0,1-3.63,1.6,22.548,22.548,0,0,1-4.541.427H0V0H15.529q5.88.088,8.331,3.389M6.406,5.521v7.014H14.22a6.548,6.548,0,0,0,3.4-.788,3,3,0,0,0,1.307-2.79A2.853,2.853,0,0,0,17.2,6.016a12.322,12.322,0,0,0-3.8-.5Zm0,12.274v8.477h7.8a7.64,7.64,0,0,0,3.257-.561c1.41-.7,2.112-2.014,2.112-3.97a3.41,3.41,0,0,0-2.044-3.412,8.234,8.234,0,0,0-3.218-.534H6.406Zm39.38-9.034a9.574,9.574,0,0,1,4.1,3.477,11.357,11.357,0,0,1,1.9,4.86,30.084,30.084,0,0,1,.208,4.666H34.681c.1,2.356.923,4.012,2.489,4.957a6.357,6.357,0,0,0,3.429.887,5.3,5.3,0,0,0,3.446-1.076,5.13,5.13,0,0,0,1.281-1.616h6.344a7.717,7.717,0,0,1-2.3,4.25q-3.194,3.421-8.942,3.425A13.018,13.018,0,0,1,32.057,29.7q-3.637-2.889-3.63-9.409,0-6.11,3.273-9.373a11.553,11.553,0,0,1,8.5-3.259,13.536,13.536,0,0,1,5.59,1.1m-9.292,5.308a6.38,6.38,0,0,0-1.658,3.637h10.71a5.146,5.146,0,0,0-1.654-3.718,5.506,5.506,0,0,0-3.69-1.265,4.99,4.99,0,0,0-3.708,1.346m-3.263-8.63H47V1.483H33.231Z" fill="#222"/>
      </g>
    </g>
  </g>
</svg>
