<svg xmlns="http://www.w3.org/2000/svg" width="48.741" height="48.744" viewBox="0 0 48.741 48.744">
  <g id="Group_40789" data-name="Group 40789" transform="translate(-1244.225 -11163.424)">
    <path id="Path_23" data-name="Path 23" d="M462.474,141.83c6.107,0,6.83.024,9.241.134a12.634,12.634,0,0,1,4.248.787,7.576,7.576,0,0,1,4.34,4.34,12.679,12.679,0,0,1,.789,4.248c.109,2.411.134,3.134.134,9.241s-.024,6.832-.134,9.243a12.661,12.661,0,0,1-.789,4.246,7.571,7.571,0,0,1-4.34,4.342,12.632,12.632,0,0,1-4.248.787c-2.411.11-3.134.134-9.241.134s-6.83-.024-9.241-.134a12.631,12.631,0,0,1-4.248-.787,7.571,7.571,0,0,1-4.34-4.342,12.658,12.658,0,0,1-.789-4.246c-.11-2.411-.132-3.134-.132-9.243s.022-6.83.132-9.241a12.677,12.677,0,0,1,.789-4.248,7.576,7.576,0,0,1,4.34-4.34,12.632,12.632,0,0,1,4.248-.787c2.411-.11,3.135-.134,9.241-.134m0-4.121c-6.212,0-6.99.026-9.43.138a16.749,16.749,0,0,0-5.552,1.063,11.68,11.68,0,0,0-6.687,6.69,16.735,16.735,0,0,0-1.063,5.55c-.112,2.44-.138,3.22-.138,9.43s.026,6.992.138,9.43a16.737,16.737,0,0,0,1.063,5.552,11.68,11.68,0,0,0,6.687,6.69,16.8,16.8,0,0,0,5.552,1.063c2.44.112,3.218.138,9.43.138s6.99-.026,9.43-.138a16.8,16.8,0,0,0,5.552-1.063,11.692,11.692,0,0,0,6.69-6.69,16.792,16.792,0,0,0,1.063-5.552c.11-2.437.136-3.218.136-9.43s-.026-6.99-.136-9.43a16.79,16.79,0,0,0-1.063-5.55,11.692,11.692,0,0,0-6.69-6.69,16.75,16.75,0,0,0-5.552-1.063c-2.44-.112-3.218-.138-9.43-.138" transform="translate(806.121 11027.215)" stroke="#f8f8f8" stroke-width="3"/>
    <path id="Path_24" data-name="Path 24" d="M456.424,142.785a11.746,11.746,0,1,0,11.744,11.744,11.745,11.745,0,0,0-11.744-11.744m0,19.37a7.625,7.625,0,1,1,7.623-7.626,7.625,7.625,0,0,1-7.623,7.626" transform="translate(812.171 11033.266)" stroke="#f8f8f8" stroke-width="2"/>
    <path id="Path_25" data-name="Path 25" d="M459.844,144.065a2.744,2.744,0,1,1-2.744-2.744,2.745,2.745,0,0,1,2.744,2.744" transform="translate(823.704 11031.521)" stroke="#f8f8f8" stroke-width="2"/>
  </g>
</svg>
