<svg xmlns="http://www.w3.org/2000/svg" xmlns:xlink="http://www.w3.org/1999/xlink" width="44.909" height="42.146" viewBox="0 0 44.909 42.146">
  <defs>
    <clipPath id="clip-path">
      <rect id="Rectangle_4953" data-name="Rectangle 4953" width="22.594" height="22.704" fill="#222"/>
    </clipPath>
  </defs>
  <g id="Group_40790" data-name="Group 40790" transform="translate(-1312.892 -11166.998)">
    <g id="Rectangle_3760" data-name="Rectangle 3760" transform="translate(1312.892 11166.998)" fill="none" stroke="#000" stroke-width="1">
      <rect width="44.909" height="42.146" stroke="none"/>
      <rect x="0.5" y="0.5" width="43.909" height="41.146" fill="none"/>
    </g>
    <g id="Group_40783" data-name="Group 40783" transform="translate(1324.049 11175.587)">
      <rect id="Rectangle_4952" data-name="Rectangle 4952" width="4.225" height="15.31" transform="translate(0.529 7.393)" fill="#222"/>
      <g id="Group_40782" data-name="Group 40782" transform="translate(0 0)">
        <g id="Group_40781" data-name="Group 40781" clip-path="url(#clip-path)">
          <path id="Path_17606" data-name="Path 17606" d="M28.347,15.387a5.584,5.584,0,0,0-6.336,1.947V15.387H17.8V30.7h4.211V22.621a3.954,3.954,0,0,1,1.043-2.77,2.221,2.221,0,0,1,1.6-.781,2.537,2.537,0,0,1,1.844.744,2.868,2.868,0,0,1,.8,2.035V30.7h4.754v-9.48a5.62,5.62,0,0,0-3.7-5.83" transform="translate(-9.471 -7.994)" fill="#222"/>
          <path id="Path_17607" data-name="Path 17607" d="M2.639,0A2.639,2.639,0,1,1,0,2.639,2.639,2.639,0,0,1,2.639,0" transform="translate(0 0)" fill="#222"/>
        </g>
      </g>
    </g>
  </g>
</svg>
